<svg width="14" height="14" viewBox="0 0 14 14" fill="none" xmlns="http://www.w3.org/2000/svg">
<path fill-rule="evenodd" clip-rule="evenodd" d="M13.3 0H0.7C0.311111 0 0 0.311111 0 0.7V13.3C0 13.6111 0.311111 14 0.7 14H13.3C13.6111 14 14 13.6111 14 13.3V0.7C14 0.311111 13.6111 0 13.3 0ZM4.66676 3.11121H3.11121V4.66676H4.66676V3.11121ZM10.8891 3.11121H6.22241V4.66676H10.8891V3.11121ZM10.8891 6.22241H6.22241V7.77797H10.8891V6.22241ZM6.22241 9.33319H10.8891V10.8887H6.22241V9.33319ZM3.11121 6.22241H4.66676V7.77797H3.11121V6.22241ZM4.66676 9.33319H3.11121V10.8887H4.66676V9.33319ZM1.5556 12.4445H12.4445V1.5556H1.5556V12.4445Z" fill="#014F59"/>
</svg>
