<svg width="107" height="141" viewBox="0 0 107 141" fill="none" xmlns="http://www.w3.org/2000/svg">
<path d="M4.8601 140.149C2.40852 140.149 1.21192 137.51 0.920063 136.19C0.847099 94.1121 0.701172 8.98793 0.701172 5.11731C0.701172 1.2467 3.61972 0.572277 5.07899 0.718891H70.0896L105.112 37.2258V136.19C105.112 138.653 102.485 139.856 101.172 140.149H4.8601Z" fill="#C4C4C4" fill-opacity="0.2"/>
<path d="M72.335 1.92667L104.717 35.4305C105.868 36.627 106.514 38.2089 106.514 39.8719V136.226C106.514 138.781 104.454 140.85 101.911 140.85H4.60352C2.0598 140.85 0.000610352 138.781 0.000610352 136.226V4.62401C-0.019577 2.06864 2.03962 0 4.58334 0H67.7725C69.4885 0 71.1439 0.689545 72.335 1.92667ZM71.8339 2.83626V34.2172C71.8339 35.2109 72.6414 36.0221 73.6307 36.0221H104.094L71.8339 2.83626ZM5.78646 139.679H100.687C103.231 139.679 105.29 137.61 105.29 135.055V39.2914C105.29 38.0543 104.281 37.0402 103.049 37.0402H72.5511C71.5618 37.0402 70.7543 36.229 70.7543 35.2352V3.42237C70.7543 2.18525 69.7449 1.17121 68.5134 1.17121H5.76627C3.22255 1.17121 1.16335 3.23985 1.16335 5.79522V135.034C1.16335 137.59 3.22256 139.679 5.78646 139.679Z" fill="#C4C4C4"/>
<path d="M15.6957 106.522V105.389H22.45V106.522H19.727V114.116H18.4145V106.522H15.6957ZM24.8545 114.261C24.4397 114.261 24.0647 114.184 23.7295 114.031C23.3942 113.875 23.1286 113.649 22.9326 113.353C22.7394 113.058 22.6428 112.696 22.6428 112.267C22.6428 111.897 22.7138 111.593 22.8559 111.355C22.9979 111.116 23.1897 110.927 23.4312 110.788C23.6726 110.649 23.9425 110.544 24.2408 110.473C24.5391 110.402 24.8431 110.348 25.1528 110.311C25.5448 110.265 25.863 110.228 26.1073 110.2C26.3516 110.169 26.5292 110.119 26.64 110.051C26.7508 109.983 26.8062 109.872 26.8062 109.718V109.689C26.8062 109.316 26.701 109.028 26.4908 108.823C26.2834 108.619 25.9738 108.517 25.5618 108.517C25.1329 108.517 24.7948 108.612 24.5476 108.802C24.3033 108.99 24.1343 109.198 24.0405 109.429L22.8431 109.156C22.9851 108.758 23.1925 108.437 23.4653 108.193C23.7408 107.946 24.0576 107.767 24.4155 107.656C24.7735 107.542 25.1499 107.485 25.5448 107.485C25.8062 107.485 26.0832 107.517 26.3758 107.579C26.6712 107.639 26.9468 107.75 27.2025 107.912C27.461 108.073 27.6726 108.305 27.8374 108.606C28.0022 108.904 28.0846 109.292 28.0846 109.769V114.116H26.8403V113.221H26.7891C26.7067 113.386 26.5832 113.548 26.4184 113.707C26.2536 113.866 26.042 113.998 25.7834 114.103C25.5249 114.208 25.2153 114.261 24.8545 114.261ZM25.1314 113.238C25.4837 113.238 25.7849 113.169 26.0349 113.029C26.2877 112.89 26.4795 112.708 26.6101 112.484C26.7437 112.257 26.8104 112.014 26.8104 111.755V110.912C26.765 110.957 26.6769 111 26.5462 111.039C26.4184 111.076 26.2721 111.109 26.1073 111.137C25.9425 111.163 25.782 111.187 25.6258 111.21C25.4695 111.23 25.3388 111.247 25.2337 111.261C24.9866 111.292 24.7607 111.345 24.5562 111.419C24.3545 111.493 24.1925 111.599 24.0704 111.738C23.951 111.875 23.8914 112.056 23.8914 112.284C23.8914 112.599 24.0079 112.838 24.2408 113C24.4738 113.159 24.7707 113.238 25.1314 113.238ZM25.5533 116.375C25.3346 116.375 25.1457 116.301 24.9866 116.153C24.8275 116.005 24.7479 115.826 24.7479 115.616C24.7479 115.406 24.8275 115.227 24.9866 115.079C25.1457 114.931 25.3346 114.858 25.5533 114.858C25.7749 114.858 25.9638 114.931 26.1201 115.079C26.2792 115.227 26.3587 115.406 26.3587 115.616C26.3587 115.826 26.2792 116.005 26.1201 116.153C25.9638 116.301 25.7749 116.375 25.5533 116.375ZM32.5388 114.248C31.9251 114.248 31.3896 114.108 30.9322 113.826C30.4748 113.545 30.1197 113.152 29.8669 112.646C29.614 112.14 29.4876 111.549 29.4876 110.873C29.4876 110.194 29.614 109.6 29.8669 109.092C30.1197 108.583 30.4748 108.189 30.9322 107.907C31.3896 107.626 31.9251 107.485 32.5388 107.485C33.1524 107.485 33.6879 107.626 34.1453 107.907C34.6027 108.189 34.9578 108.583 35.2106 109.092C35.4635 109.6 35.5899 110.194 35.5899 110.873C35.5899 111.549 35.4635 112.14 35.2106 112.646C34.9578 113.152 34.6027 113.545 34.1453 113.826C33.6879 114.108 33.1524 114.248 32.5388 114.248ZM32.543 113.179C32.9408 113.179 33.2703 113.073 33.5317 112.863C33.793 112.653 33.9862 112.373 34.1112 112.024C34.239 111.674 34.303 111.289 34.303 110.869C34.303 110.451 34.239 110.068 34.1112 109.718C33.9862 109.366 33.793 109.083 33.5317 108.87C33.2703 108.657 32.9408 108.551 32.543 108.551C32.1425 108.551 31.8101 108.657 31.5459 108.87C31.2845 109.083 31.0899 109.366 30.9621 109.718C30.8371 110.068 30.7746 110.451 30.7746 110.869C30.7746 111.289 30.8371 111.674 30.9621 112.024C31.0899 112.373 31.2845 112.653 31.5459 112.863C31.8101 113.073 32.1425 113.179 32.543 113.179ZM40.2902 114.116V105.389H41.5643V108.632H41.641C41.7149 108.495 41.8214 108.338 41.9606 108.159C42.0998 107.98 42.293 107.823 42.5402 107.69C42.7873 107.554 43.114 107.485 43.5203 107.485C44.0487 107.485 44.5203 107.619 44.9351 107.886C45.3498 108.153 45.6751 108.538 45.9109 109.041C46.1496 109.544 46.2689 110.149 46.2689 110.856C46.2689 111.564 46.151 112.17 45.9152 112.676C45.6794 113.179 45.3555 113.566 44.9436 113.839C44.5317 114.109 44.0615 114.244 43.5331 114.244C43.1354 114.244 42.8101 114.177 42.5572 114.044C42.3072 113.91 42.1112 113.754 41.9692 113.575C41.8271 113.396 41.7177 113.237 41.641 113.098H41.5345V114.116H40.2902ZM41.5388 110.843C41.5388 111.304 41.6055 111.707 41.739 112.054C41.8726 112.4 42.0658 112.671 42.3186 112.868C42.5714 113.061 42.8811 113.157 43.2476 113.157C43.6283 113.157 43.9464 113.056 44.2021 112.855C44.4578 112.65 44.651 112.373 44.7817 112.024C44.9152 111.674 44.9819 111.281 44.9819 110.843C44.9819 110.412 44.9166 110.024 44.7859 109.68C44.6581 109.336 44.4649 109.065 44.2064 108.866C43.9507 108.667 43.6311 108.568 43.2476 108.568C42.8783 108.568 42.5658 108.663 42.3101 108.853C42.0572 109.044 41.8655 109.309 41.7348 109.65C41.6041 109.991 41.5388 110.389 41.5388 110.843ZM49.6045 114.261C49.1897 114.261 48.8147 114.184 48.4795 114.031C48.1442 113.875 47.8786 113.649 47.6826 113.353C47.4894 113.058 47.3928 112.696 47.3928 112.267C47.3928 111.897 47.4638 111.593 47.6059 111.355C47.7479 111.116 47.9397 110.927 48.1812 110.788C48.4226 110.649 48.6925 110.544 48.9908 110.473C49.2891 110.402 49.5931 110.348 49.9028 110.311C50.2948 110.265 50.613 110.228 50.8573 110.2C51.1016 110.169 51.2792 110.119 51.39 110.051C51.5008 109.983 51.5562 109.872 51.5562 109.718V109.689C51.5562 109.316 51.451 109.028 51.2408 108.823C51.0334 108.619 50.7238 108.517 50.3118 108.517C49.8829 108.517 49.5448 108.612 49.2976 108.802C49.0533 108.99 48.8843 109.198 48.7905 109.429L47.5931 109.156C47.7351 108.758 47.9425 108.437 48.2153 108.193C48.4908 107.946 48.8076 107.767 49.1655 107.656C49.5235 107.542 49.8999 107.485 50.2948 107.485C50.5562 107.485 50.8332 107.517 51.1258 107.579C51.4212 107.639 51.6968 107.75 51.9525 107.912C52.211 108.073 52.4226 108.305 52.5874 108.606C52.7522 108.904 52.8346 109.292 52.8346 109.769V114.116H51.5903V113.221H51.5391C51.4567 113.386 51.3332 113.548 51.1684 113.707C51.0036 113.866 50.792 113.998 50.5334 114.103C50.2749 114.208 49.9653 114.261 49.6045 114.261ZM49.8814 113.238C50.2337 113.238 50.5349 113.169 50.7849 113.029C51.0377 112.89 51.2295 112.708 51.3601 112.484C51.4937 112.257 51.5604 112.014 51.5604 111.755V110.912C51.515 110.957 51.4269 111 51.2962 111.039C51.1684 111.076 51.0221 111.109 50.8573 111.137C50.6925 111.163 50.532 111.187 50.3758 111.21C50.2195 111.23 50.0888 111.247 49.9837 111.261C49.7366 111.292 49.5107 111.345 49.3062 111.419C49.1045 111.493 48.9425 111.599 48.8204 111.738C48.701 111.875 48.6414 112.056 48.6414 112.284C48.6414 112.599 48.7579 112.838 48.9908 113C49.2238 113.159 49.5207 113.238 49.8814 113.238ZM49.8644 106.697L48.5476 104.733H49.89L50.8829 106.697H49.8644ZM54.5317 114.116V107.571H55.8058V114.116H54.5317ZM55.1751 106.561C54.9535 106.561 54.7632 106.487 54.6041 106.339C54.4479 106.189 54.3697 106.01 54.3697 105.802C54.3697 105.592 54.4479 105.413 54.6041 105.265C54.7632 105.115 54.9535 105.039 55.1751 105.039C55.3967 105.039 55.5856 105.115 55.7419 105.265C55.901 105.413 55.9805 105.592 55.9805 105.802C55.9805 106.01 55.901 106.189 55.7419 106.339C55.5856 106.487 55.3967 106.561 55.1751 106.561ZM63.44 116.707C62.9202 116.707 62.4727 116.639 62.0977 116.502C61.7256 116.366 61.4216 116.186 61.1858 115.961C60.95 115.737 60.7738 115.491 60.6574 115.224L61.7525 114.772C61.8292 114.897 61.9315 115.029 62.0594 115.169C62.19 115.311 62.3662 115.431 62.5878 115.531C62.8122 115.63 63.1006 115.68 63.4528 115.68C63.9358 115.68 64.3349 115.562 64.6503 115.326C64.9656 115.093 65.1233 114.721 65.1233 114.21V112.923H65.0423C64.9656 113.062 64.8548 113.217 64.7099 113.387C64.5679 113.558 64.3719 113.706 64.1219 113.831C63.8719 113.956 63.5466 114.018 63.146 114.018C62.629 114.018 62.1631 113.897 61.7483 113.656C61.3363 113.412 61.0096 113.052 60.7682 112.578C60.5295 112.1 60.4102 111.514 60.4102 110.818C60.4102 110.122 60.5281 109.525 60.7639 109.028C61.0025 108.531 61.3292 108.15 61.744 107.886C62.1588 107.619 62.629 107.485 63.1545 107.485C63.5608 107.485 63.8889 107.554 64.1389 107.69C64.3889 107.823 64.5835 107.98 64.7227 108.159C64.8648 108.338 64.9741 108.495 65.0508 108.632H65.1446V107.571H66.3932V114.261C66.3932 114.823 66.2625 115.285 66.0011 115.646C65.7398 116.007 65.3861 116.274 64.94 116.447C64.4969 116.62 63.9969 116.707 63.44 116.707ZM63.4273 112.961C63.7937 112.961 64.1034 112.876 64.3562 112.706C64.6119 112.532 64.8051 112.285 64.9358 111.964C65.0693 111.64 65.1361 111.252 65.1361 110.801C65.1361 110.36 65.0707 109.973 64.94 109.637C64.8094 109.302 64.6176 109.041 64.3648 108.853C64.1119 108.663 63.7994 108.568 63.4273 108.568C63.0437 108.568 62.7241 108.667 62.4684 108.866C62.2128 109.062 62.0196 109.329 61.8889 109.667C61.7611 110.005 61.6971 110.383 61.6971 110.801C61.6971 111.23 61.7625 111.606 61.8932 111.93C62.0238 112.254 62.217 112.507 62.4727 112.689C62.7312 112.87 63.0494 112.961 63.4273 112.961ZM68.102 114.116V107.571H69.3761V114.116H68.102ZM68.7454 106.561C68.5238 106.561 68.3335 106.487 68.1744 106.339C68.0182 106.189 67.94 106.01 67.94 105.802C67.94 105.592 68.0182 105.413 68.1744 105.265C68.3335 105.115 68.5238 105.039 68.7454 105.039C68.967 105.039 69.1559 105.115 69.3122 105.265C69.4713 105.413 69.5508 105.592 69.5508 105.802C69.5508 106.01 69.4713 106.189 69.3122 106.339C69.1559 106.487 68.967 106.561 68.7454 106.561ZM72.9951 114.261C72.5803 114.261 72.2053 114.184 71.8701 114.031C71.5349 113.875 71.2692 113.649 71.0732 113.353C70.88 113.058 70.7834 112.696 70.7834 112.267C70.7834 111.897 70.8545 111.593 70.9965 111.355C71.1385 111.116 71.3303 110.927 71.5718 110.788C71.8133 110.649 72.0832 110.544 72.3814 110.473C72.6797 110.402 72.9837 110.348 73.2934 110.311C73.6854 110.265 74.0036 110.228 74.2479 110.2C74.4922 110.169 74.6698 110.119 74.7806 110.051C74.8914 109.983 74.9468 109.872 74.9468 109.718V109.689C74.9468 109.316 74.8417 109.028 74.6314 108.823C74.4241 108.619 74.1144 108.517 73.7025 108.517C73.2735 108.517 72.9354 108.612 72.6883 108.802C72.4439 108.99 72.2749 109.198 72.1812 109.429L70.9837 109.156C71.1258 108.758 71.3332 108.437 71.6059 108.193C71.8814 107.946 72.1982 107.767 72.5562 107.656C72.9141 107.542 73.2905 107.485 73.6854 107.485C73.9468 107.485 74.2238 107.517 74.5164 107.579C74.8118 107.639 75.0874 107.75 75.3431 107.912C75.6016 108.073 75.8133 108.305 75.978 108.606C76.1428 108.904 76.2252 109.292 76.2252 109.769V114.116H74.9809V113.221H74.9297C74.8474 113.386 74.7238 113.548 74.559 113.707C74.3942 113.866 74.1826 113.998 73.9241 114.103C73.6655 114.208 73.3559 114.261 72.9951 114.261ZM73.2721 113.238C73.6243 113.238 73.9255 113.169 74.1755 113.029C74.4283 112.89 74.6201 112.708 74.7508 112.484C74.8843 112.257 74.951 112.014 74.951 111.755V110.912C74.9056 110.957 74.8175 111 74.6868 111.039C74.559 111.076 74.4127 111.109 74.2479 111.137C74.0832 111.163 73.9226 111.187 73.7664 111.21C73.6101 111.23 73.4795 111.247 73.3743 111.261C73.1272 111.292 72.9013 111.345 72.6968 111.419C72.4951 111.493 72.3332 111.599 72.211 111.738C72.0917 111.875 72.032 112.056 72.032 112.284C72.032 112.599 72.1485 112.838 72.3814 113C72.6144 113.159 72.9113 113.238 73.2721 113.238ZM74.2735 106.667H73.2678L73.2337 105.798C73.5349 105.784 73.7479 105.744 73.8729 105.679C73.9979 105.61 74.059 105.512 74.0562 105.385C74.059 105.231 73.9724 105.122 73.7962 105.056C73.6229 104.991 73.4113 104.958 73.1613 104.958L73.1996 104.255C73.8445 104.255 74.3332 104.358 74.6655 104.562C75.0008 104.767 75.167 105.042 75.1641 105.389C75.167 105.67 75.0746 105.877 74.8871 106.011C74.7025 106.142 74.4979 106.224 74.2735 106.258V106.667ZM79.1964 110.23V114.116H77.9223V107.571H79.1453V108.636H79.2263C79.3768 108.289 79.6126 108.011 79.9336 107.801C80.2575 107.591 80.6652 107.485 81.1567 107.485C81.6027 107.485 81.9933 107.579 82.3285 107.767C82.6638 107.951 82.9237 108.227 83.1084 108.593C83.293 108.96 83.3854 109.413 83.3854 109.953V114.116H82.1112V110.106C82.1112 109.632 81.9876 109.261 81.7405 108.994C81.4933 108.724 81.1538 108.589 80.722 108.589C80.4265 108.589 80.1638 108.653 79.9336 108.781C79.7064 108.909 79.526 109.096 79.3925 109.343C79.2618 109.588 79.1964 109.883 79.1964 110.23ZM87.8385 116.707C87.3186 116.707 86.8711 116.639 86.4961 116.502C86.124 116.366 85.82 116.186 85.5842 115.961C85.3484 115.737 85.1723 115.491 85.0558 115.224L86.151 114.772C86.2277 114.897 86.33 115.029 86.4578 115.169C86.5885 115.311 86.7646 115.431 86.9862 115.531C87.2106 115.63 87.499 115.68 87.8513 115.68C88.3342 115.68 88.7334 115.562 89.0487 115.326C89.364 115.093 89.5217 114.721 89.5217 114.21V112.923H89.4408C89.364 113.062 89.2533 113.217 89.1084 113.387C88.9663 113.558 88.7703 113.706 88.5203 113.831C88.2703 113.956 87.945 114.018 87.5444 114.018C87.0274 114.018 86.5615 113.897 86.1467 113.656C85.7348 113.412 85.4081 113.052 85.1666 112.578C84.928 112.1 84.8086 111.514 84.8086 110.818C84.8086 110.122 84.9265 109.525 85.1623 109.028C85.401 108.531 85.7277 108.15 86.1425 107.886C86.5572 107.619 87.0274 107.485 87.553 107.485C87.9592 107.485 88.2873 107.554 88.5373 107.69C88.7873 107.823 88.9819 107.98 89.1211 108.159C89.2632 108.338 89.3726 108.495 89.4493 108.632H89.543V107.571H90.7916V114.261C90.7916 114.823 90.6609 115.285 90.3996 115.646C90.1382 116.007 89.7845 116.274 89.3385 116.447C88.8953 116.62 88.3953 116.707 87.8385 116.707ZM87.8257 112.961C88.1922 112.961 88.5018 112.876 88.7547 112.706C89.0104 112.532 89.2035 112.285 89.3342 111.964C89.4677 111.64 89.5345 111.252 89.5345 110.801C89.5345 110.36 89.4692 109.973 89.3385 109.637C89.2078 109.302 89.016 109.041 88.7632 108.853C88.5104 108.663 88.1979 108.568 87.8257 108.568C87.4422 108.568 87.1226 108.667 86.8669 108.866C86.6112 109.062 86.418 109.329 86.2873 109.667C86.1595 110.005 86.0956 110.383 86.0956 110.801C86.0956 111.23 86.1609 111.606 86.2916 111.93C86.4223 112.254 86.6155 112.507 86.8711 112.689C87.1297 112.87 87.4479 112.961 87.8257 112.961Z" fill="#636363"/>
<path fill-rule="evenodd" clip-rule="evenodd" d="M52.8191 42.2549C43.1181 42.2549 35.2129 50.1601 35.2129 59.8611C35.2129 69.5621 43.1181 77.4673 52.8191 77.4673C62.5201 77.4673 70.4253 69.5621 70.4253 59.8611C70.4253 50.1601 62.5201 42.2549 52.8191 42.2549ZM54.5798 51.058H51.0586V58.1005H44.0161V61.6217H51.0586V68.6642H54.5798V61.6217H61.6223V58.1005H54.5798V51.058ZM38.7342 59.8611C38.7342 67.6254 45.0548 73.9461 52.8191 73.9461C60.5835 73.9461 66.9041 67.6254 66.9041 59.8611C66.9041 52.0968 60.5835 45.7761 52.8191 45.7761C45.0548 45.7761 38.7342 52.0968 38.7342 59.8611Z" fill="#636363"/>
</svg>
