<svg width="35" height="35" viewBox="0 0 35 35" fill="none" xmlns="http://www.w3.org/2000/svg">
<path d="M34.0723 14.9397L31.2151 13.9935C30.9101 12.8902 30.4758 11.8386 29.9288 10.8609L31.35 8.07947C31.4904 7.8041 31.4387 7.46774 31.2188 7.24966L28.1176 4.1485C27.8995 3.93042 27.5669 3.87682 27.2915 4.01543L24.5175 5.40892C23.4954 4.82676 22.394 4.36842 21.2352 4.05055L20.313 1.20258C20.2169 0.906875 19.9433 0.707275 19.6328 0.707275H15.2472C14.9386 0.707275 14.6651 0.905027 14.569 1.19703L13.6153 4.08011C12.536 4.38321 11.5066 4.81013 10.5474 5.34608L7.92679 4.00619C7.65141 3.86573 7.31506 3.91748 7.09698 4.13741L3.99582 7.23857C3.77774 7.45665 3.72414 7.78931 3.86275 8.06469L5.15644 10.641C4.54471 11.6907 4.0642 12.8273 3.73523 14.0268L0.927918 14.9342C0.632217 15.0303 0.432617 15.3038 0.432617 15.6143V19.9999C0.432617 20.3085 0.630366 20.5821 0.922371 20.6782L3.74447 21.6133C4.0531 22.7259 4.49111 23.783 5.04555 24.7699L3.73153 27.3407C3.59107 27.6161 3.64282 27.9524 3.86275 28.1705L6.96391 31.2717C7.18199 31.4897 7.51466 31.5433 7.79003 31.4047L10.3294 30.1277C11.3772 30.7357 12.5083 31.2144 13.704 31.5433L14.5893 34.2804C14.6854 34.5761 14.9589 34.7757 15.2694 34.7757H19.655C19.9637 34.7757 20.2372 34.578 20.3333 34.286L21.2407 31.5452C22.4106 31.2255 23.5213 30.7597 24.5507 30.1683L27.1215 31.4823C27.3968 31.6228 27.7332 31.5711 27.9513 31.3511L31.0524 28.25C31.2705 28.0319 31.3241 27.6992 31.1855 27.4239L29.8752 24.818C30.4426 23.8163 30.8935 22.7407 31.2058 21.6078L34.0612 20.6837C34.3569 20.5876 34.5565 20.3141 34.5565 20.0036V15.618C34.562 15.3094 34.3643 15.0358 34.0723 14.9397ZM32.2667 18.9816L29.1415 20.2623C28.8273 21.6965 28.2562 23.0345 27.48 24.2266L28.7977 27.3813L27.1603 29.0188L24.0203 27.7048C22.8079 28.505 21.4403 29.089 19.9729 29.4069L18.6663 32.5857H16.3487L15.0624 29.4457C13.5377 29.1408 12.1183 28.5438 10.8616 27.7196L7.76784 29.0114L6.1304 27.374L7.4204 24.2913C6.60907 23.0641 6.01767 21.6799 5.70164 20.1921L2.69473 18.9557V16.6382L5.65359 15.4258C5.95483 13.8456 6.56472 12.3782 7.4204 11.0827L6.19509 8.146L7.83253 6.50856L10.747 7.72832C12.0537 6.85046 13.5414 6.22395 15.1437 5.91346L16.3413 3.00081H18.6589L19.8639 5.93934C21.4329 6.26276 22.8892 6.89112 24.17 7.76344L27.1215 6.53074L28.7589 8.16818L27.5003 11.1732C28.3209 12.4392 28.9086 13.8678 29.2043 15.4018L32.2685 16.6603V18.9816H32.2667Z" fill="#636363"/>
<path d="M17.4985 13.1279C14.9204 13.1279 12.8302 15.2182 12.8302 17.7963C12.8302 20.3744 14.9204 22.4647 17.4985 22.4647C20.0767 22.4647 22.1669 20.3744 22.1669 17.7963C22.1669 15.2182 20.0767 13.1279 17.4985 13.1279ZM17.4985 20.1009C16.2252 20.1009 15.1921 19.0678 15.1921 17.7945C15.1921 16.5211 16.2252 15.488 17.4985 15.488C18.7719 15.488 19.805 16.5211 19.805 17.7945C19.805 19.0697 18.7719 20.1009 17.4985 20.1009Z" fill="#636363"/>
<path d="M17.4799 8.63184C12.4197 8.63184 8.31689 12.7347 8.31689 17.7949C8.31689 22.855 12.4197 26.9579 17.4799 26.9579C22.5401 26.9579 26.643 22.855 26.643 17.7949C26.643 12.7347 22.542 8.63184 17.4799 8.63184ZM17.4799 24.5978C13.7245 24.5978 10.6788 21.5521 10.6788 17.7967C10.6788 14.0413 13.7245 10.9956 17.4799 10.9956C21.2353 10.9956 24.281 14.0413 24.281 17.7967C24.281 21.5521 21.2372 24.5978 17.4799 24.5978Z" fill="#636363"/>
</svg>
