<svg width="152" height="201" viewBox="0 0 152 201" fill="none" xmlns="http://www.w3.org/2000/svg">
<path d="M103.225 2.74946L149.436 50.5611C151.078 52.2687 152 54.5261 152 56.8994V194.401C152 198.048 149.061 201 145.431 201H6.5688C2.93878 201 0.000213623 198.048 0.000213623 194.401V6.5987C-0.028595 2.95205 2.90999 0 6.53999 0H96.7143C99.1631 0 101.525 0.984017 103.225 2.74946ZM102.51 4.0475V48.8297C102.51 50.2478 103.663 51.4055 105.074 51.4055H148.548L102.51 4.0475ZM8.25693 199.329H143.686C147.316 199.329 150.254 196.377 150.254 192.73V56.0709C150.254 54.3055 148.814 52.8584 147.056 52.8584H103.534C102.122 52.8584 100.97 51.7007 100.97 50.2826V4.88391C100.97 3.11847 99.529 1.67138 97.7716 1.67138H8.2281C4.59808 1.67138 1.6595 4.62344 1.6595 8.27009V192.701C1.6595 196.348 4.5981 199.329 8.25693 199.329Z" fill="#C4C4C4"/>
</svg>
